<svg width="165" height="157" viewBox="0 0 165 157" fill="none" xmlns="http://www.w3.org/2000/svg">
<path d="M85.574 157C128.928 157 164.074 121.854 164.074 78.5C164.074 35.1456 128.928 0 85.574 0C42.2198 0 7.07422 35.1456 7.07422 78.5C7.07422 121.854 42.2198 157 85.574 157Z" fill="#F5F5F5"/>
<path d="M143.748 141.88C139.353 139.86 131.882 134.217 137.156 127.801C143.748 119.782 146.955 122.811 146.064 125.306C145.173 127.801 138.046 135.464 133.414 129.049C128.781 122.633 133.592 113.009 135.374 112.475M1.92188 56.8717C2.81268 59.842 5.94856 65.1766 11.3652 62.7529C18.1358 59.7232 19.7391 55.446 27.5788 62.7529C33.8505 68.5983 39.576 64.0003 41.6545 60.9706M131.632 24.08C129.791 19.9812 127.213 12.1398 131.632 13.5655C137.156 15.3475 128.069 23.9017 117.022 13.5655" stroke="black" stroke-width="2" stroke-linecap="round"/>
<path d="M88.8376 10.9941L89.8583 14.0033L92.6166 15.1167L89.8583 16.2301L88.8376 19.2392L87.8169 16.2301L85.0586 15.1167L87.8169 14.0033L88.8376 10.9941Z" fill="url(#paint0_radial_1749_13603)"/>
<path d="M27.517 89.3164L28.6768 92.7017L31.8113 93.9543L28.6768 95.2068L27.517 98.5921L26.3572 95.2068L23.2227 93.9543L26.3572 92.7017L27.517 89.3164Z" fill="#150764"/>
<path d="M54.5499 107.514L62.8173 115.781L37.7568 140.841C35.4739 143.124 31.7726 143.124 29.4897 140.841C27.2065 138.558 27.2065 134.857 29.4897 132.574L54.5499 107.514Z" fill="#150764"/>
<path d="M52.7648 109.941L31.8086 130.898" stroke="black" stroke-width="2" stroke-linecap="round"/>
<path d="M63.3329 96.1484L74.1838 106.999L62.2948 118.888C60.9529 120.23 58.7779 120.23 57.436 118.888L51.4439 112.896C50.102 111.554 50.102 109.379 51.4439 108.037L63.3329 96.1484Z" fill="url(#paint1_linear_1749_13603)"/>
<path d="M90.8473 119.41C113.851 119.41 132.499 100.761 132.499 77.7575C132.499 54.7537 113.851 36.1055 90.8473 36.1055C67.8435 36.1055 49.1953 54.7537 49.1953 77.7575C49.1953 100.761 67.8435 119.41 90.8473 119.41Z" fill="#150764"/>
<path d="M90.6992 110C108.456 110 122.851 95.605 122.851 77.8477C122.851 60.0904 108.456 45.6953 90.6992 45.6953C72.9419 45.6953 58.5469 60.0904 58.5469 77.8477C58.5469 95.605 72.9419 110 90.6992 110Z" fill="url(#paint2_linear_1749_13603)"/>
<path d="M109.766 98.6793C121.323 87.1214 121.323 68.3821 109.766 56.8242" stroke="black" stroke-width="2" stroke-linecap="round"/>
<path fill-rule="evenodd" clip-rule="evenodd" d="M87.8064 58.3984C85.8475 58.3984 84.2851 60.0341 84.3748 61.9909L85.491 86.3826C85.5751 88.2171 87.0867 89.661 88.923 89.661H90.4672C92.3034 89.661 93.815 88.2171 93.8989 86.3826L95.0154 61.9909C95.1047 60.0341 93.5422 58.3984 91.5834 58.3984H87.8064ZM89.5231 99.2803C91.8001 99.2803 93.6457 97.4348 93.6457 95.1577C93.6457 92.8811 91.8001 91.0352 89.5231 91.0352C87.2465 91.0352 85.4006 92.8811 85.4006 95.1577C85.4006 97.4348 87.2465 99.2803 89.5231 99.2803Z" fill="white"/>
<path d="M148.615 77.6365C150.512 77.6365 152.051 76.0984 152.051 74.2011C152.051 72.3037 150.512 70.7656 148.615 70.7656C146.718 70.7656 145.18 72.3037 145.18 74.2011C145.18 76.0984 146.718 77.6365 148.615 77.6365Z" fill="url(#paint3_linear_1749_13603)"/>
<defs>
<radialGradient id="paint0_radial_1749_13603" cx="0" cy="0" r="1" gradientUnits="userSpaceOnUse" gradientTransform="translate(88.8374 15.1165) rotate(90) scale(4.12254 3.77899)">
<stop stop-color="#150764"/>
<stop offset="1" stop-color="#150764" stop-opacity="0"/>
</radialGradient>
<linearGradient id="paint1_linear_1749_13603" x1="68.7584" y1="101.574" x2="54.4399" y2="115.892" gradientUnits="userSpaceOnUse">
<stop stop-color="#150764"/>
<stop offset="1" stop-color="#321DA6"/>
</linearGradient>
<linearGradient id="paint2_linear_1749_13603" x1="122.851" y1="77.8477" x2="58.5469" y2="77.8477" gradientUnits="userSpaceOnUse">
<stop stop-color="#BEB6E9"/>
<stop offset="1" stop-color="#6C5EBA"/>
</linearGradient>
<linearGradient id="paint3_linear_1749_13603" x1="148.615" y1="70.7656" x2="148.615" y2="77.6365" gradientUnits="userSpaceOnUse">
<stop stop-color="#150764"/>
<stop offset="1" stop-color="#150764" stop-opacity="0"/>
</linearGradient>
</defs>
</svg>
