<svg width="25" height="24" viewBox="0 0 25 24" fill="none" xmlns="http://www.w3.org/2000/svg">
<path fill-rule="evenodd" clip-rule="evenodd" d="M14.9329 21.0611H19.6605V18.6973H14.9329V21.0611Z" stroke="#273135" stroke-width="0.8" stroke-linejoin="round"/>
<path d="M18.872 18.6976V17.4912C18.872 17.4912 21.3831 15.0045 22.0237 14.3639V8.01079C22.0237 8.01079 20.0539 7.2977 20.0539 12.788L17.7145 15.1274L18.2566 12.7636C18.5276 11.6314 17.4915 11.1476 16.9265 12.0253C16.4065 12.8337 15.7202 15.1463 15.7202 15.1463V18.6976" stroke="#273135" stroke-width="0.8" stroke-linecap="round" stroke-linejoin="round"/>
<path fill-rule="evenodd" clip-rule="evenodd" d="M6.26538 21.0611H10.993V18.6973H6.26538V21.0611Z" stroke="#273135" stroke-width="0.8" stroke-linejoin="round"/>
<path d="M7.05336 18.6976V17.4912C7.05336 17.4912 4.68955 15.0045 3.90161 14.3639V8.01079C3.90161 8.01079 5.87145 7.2977 5.87145 12.788L8.21084 15.1274L7.66874 12.7636C7.39769 11.6314 8.43382 11.1476 8.99877 12.0253C9.51881 12.8337 10.2051 15.1463 10.2051 15.1463V18.6976" stroke="#273135" stroke-width="0.8" stroke-linecap="round" stroke-linejoin="round"/>
<path fill-rule="evenodd" clip-rule="evenodd" d="M12.5688 7.66654L8.62915 5.30273V10.0304L12.5688 12.3942L17.2965 10.0304V5.30273L12.5688 7.66654V7.66654Z" stroke="#273135" stroke-width="0.8" stroke-linejoin="round"/>
<path fill-rule="evenodd" clip-rule="evenodd" d="M12.9628 2.93848L8.62915 5.30229L12.5688 7.6661L17.2965 5.30229L12.9628 2.93848V2.93848Z" stroke="#273135" stroke-width="0.8" stroke-linejoin="round"/>
<path d="M12.5693 7.66602V12.3936" stroke="#273135" stroke-width="0.8" stroke-linejoin="round"/>
</svg>
